# xmcd CD database file generated by OrangeCD 6.1
#
# Track frame offsets:
#	150
#	34045
#	91787
#	131694
#	176226
#	197668
#	221661
#	263773
#	288009
#
# Disc length: 4139 seconds
#
# Revision: 1
# Processed by: cddbd v1.5.2PL0 Copyright (c) Steve Scherf et al.
# Submitted via: OrangeCD 6.1
#
DISCID=7d102909
DTITLE=Bobby Matos - Live at M.O.C.A
DYEAR=1999
DGENRE=Jazz
TTITLE0=Jammin' at the Crossroads of the World
TTITLE1=African Queen
TTITLE2=Highway One
TTITLE3=God of the Crossroads
TTITLE4=Mambo Interlude
TTITLE5=Ana Maria
TTITLE6=Barbara Milagrosa
TTITLE7=Blues Mambe for 'Trane and Sphere
TTITLE8=Bobby's Theme
EXTD=
EXTT0=
EXTT1=
EXTT2=
EXTT3=
EXTT4=
EXTT5=
EXTT6=
EXTT7=
EXTT8=
PLAYORDER=
